# File created by Blade
# Date/Time:  Tue Apr 07 20:35:32 2015
# Frame Rate: 120.000 fps
#------------------------------------------------------
:FULLY-SPECIFIED
:DEGREES
1389
root 2.198064 34.654328 -4.929665 70.525382 -9.454195 -35.308900
Spine -27.315371 19.282749 15.765290
Head -28.388110 10.485452 7.417067
LeftShoulder -26.513689 38.604310 19.624995
LeftArm 65.827971 -65.814694 -86.782722
LeftForeArm 2.467653 0.000000 7.764763
LeftHand 12.494102 0.000000 19.591205
LeftHandThumb1 -26.253704 0.000000 33.147579
RightShoulder -5.511396 10.411994 -24.642168
RightArm 3.450822 24.801788 51.480684
RightForeArm -11.093328 -0.000000 3.940159
RightHand 4.890320 -0.000000 -3.822206
RightHandThumb1 -24.326973 -0.000000 -32.862282
LeftUpLeg -58.347389 24.440072 17.891573
LeftLeg -3.341470 -0.000000 0.000000
LeftFoot 0.934828 9.962878 -17.858632
LeftToeBase -2.609988 -0.000000 0.000000
RightUpLeg 15.115904 -11.352933 -27.251250
RightLeg 19.485683 -0.000000 -0.000000
RightFoot 43.039302 -12.514790 -5.873703
RightToeBase 29.386247 -0.000000 -0.000000
1390
root 2.190526 34.640930 -4.900570 70.361886 -9.498811 -35.283009
Spine -27.268481 19.089044 15.714693
Head -27.997422 10.596235 7.386408
LeftShoulder -26.537167 38.608325 19.487121
LeftArm 65.612092 -65.221635 -86.405111
LeftForeArm 2.700523 -0.000000 7.707628
LeftHand 12.589729 -0.000000 18.937871
LeftHandThumb1 -26.253704 0.000000 33.147579
RightShoulder -5.453764 10.379537 -24.653646
RightArm 3.391150 24.828353 51.405082
RightForeArm -10.770432 -0.000000 3.876905
RightHand 4.722400 -0.000000 -3.489170
RightHandThumb1 -24.326973 -0.000000 -32.862282
LeftUpLeg -58.211986 24.401562 17.771400
LeftLeg -3.323921 -0.000000 0.000000
LeftFoot 0.948211 9.988300 -17.681808
LeftToeBase -3.104008 -0.000000 0.000000
RightUpLeg 14.850469 -11.479132 -26.874906
RightLeg 19.369712 -0.000000 -0.000000
RightFoot 42.958164 -12.542737 -5.670965
RightToeBase 29.303530 -0.000000 -0.000000
1391
root 2.185633 34.627214 -4.870246 70.199006 -9.595964 -35.239889
Spine -27.232278 18.909460 15.584644
Head -27.655400 10.711685 7.425913
LeftShoulder -26.514291 38.583263 19.389433
LeftArm 65.473742 -64.712374 -86.164444
LeftForeArm 3.009504 -0.000000 7.708811
LeftHand 12.554617 -0.000000 18.294424
LeftHandThumb1 -26.253704 0.000000 33.147579
RightShoulder -5.415311 10.412156 -24.617999
RightArm 3.226092 24.745370 51.244851
RightForeArm -10.576195 -0.000000 3.952898
RightHand 4.465875 -0.000000 -3.215224
RightHandThumb1 -24.326973 -0.000000 -32.862282
LeftUpLeg -58.094812 24.386675 17.593166
LeftLeg -3.264393 -0.000000 0.000000
LeftFoot 0.907502 9.933523 -17.507716
LeftToeBase -3.254984 -0.000000 0.000000
RightUpLeg 14.543722 -11.655360 -26.553257
RightLeg 19.304904 -0.000000 -0.000000
RightFoot 42.854534 -12.370368 -5.618215
RightToeBase 29.400003 -0.000000 -0.000000
1392
root 2.182180 34.617120 -4.841008 70.038317 -9.671388 -35.207654
Spine -27.181462 18.751790 15.481274
Head -27.366755 10.783380 7.444354
LeftShoulder -26.398590 38.451724 19.389008
LeftArm 65.306265 -64.308370 -86.079035
LeftForeArm 3.406676 -0.000000 7.848695
LeftHand 12.555004 -0.000000 17.644277
LeftHandThumb1 -26.253704 0.000000 33.147579
RightShoulder -5.386757 10.439514 -24.580261
RightArm 3.051111 24.718541 51.098837
RightForeArm -10.292331 -0.000000 4.156802
RightHand 4.187008 -0.000000 -3.243871
RightHandThumb1 -24.326973 -0.000000 -32.862282
LeftUpLeg -58.036639 24.412784 17.402199
LeftLeg -3.126140 -0.000000 0.000000
LeftFoot 0.815362 9.789958 -17.463326
LeftToeBase -3.396311 -0.000000 0.000000
RightUpLeg 14.195736 -11.807991 -26.172970
RightLeg 19.308131 -0.000000 -0.000000
RightFoot 42.763683 -12.141029 -5.687907
RightToeBase 29.275227 -0.000000 -0.000000
1393
root 2.178146 34.612601 -4.815072 69.930150 -9.747492 -35.212504
Spine -27.170701 18.644551 15.354098
Head -27.117295 10.848431 7.520359
LeftShoulder -26.280667 38.409980 19.398619
LeftArm 65.327588 -63.928299 -86.222664
LeftForeArm 3.838994 -0.000000 8.004881
LeftHand 12.742649 0.000000 17.117150
LeftHandThumb1 -26.253704 0.000000 33.147579
RightShoulder -5.397960 10.473555 -24.548462
RightArm 2.916995 24.875147 51.027521
RightForeArm -10.339610 -0.000000 4.318098
RightHand 4.339071 0.000000 -3.493220
RightHandThumb1 -24.326973 -0.000000 -32.862282
LeftUpLeg -58.039463 24.523734 17.202630
LeftLeg -2.948204 -0.000000 0.000000
LeftFoot 0.726272 9.525244 -17.599890
LeftToeBase -3.538579 -0.000000 0.000000
RightUpLeg 13.717868 -11.966818 -25.755909
RightLeg 19.456025 -0.000000 -0.000000
RightFoot 42.583568 -12.042009 -5.651049
RightToeBase 29.194829 -0.000000 -0.000000
